# xmcd
#
# Track frame offsets: 
#        154
#        17329
#        35254
#        56404
#        72229
#        89779
#        105904
#        122479
#        137329
#        152179
#        167254
#        185629
#        201529
#        219004
#
# Disc length: 3154 seconds
#
# Revision: 1
# Processed by: cddbd v1.5.1PL0 Copyright (c) Steve Scherf et al.
# Submitted via: ExactAudioCopy v0.95a5
#
DISCID=b10c500e
DTITLE=Barbara Robinson (Perf. by C.J. Critt) - The Best Christmas Pag
DTITLE=eant Ever
DYEAR=1972
DGENRE=Audio Book
TTITLE0=Chapter 01 Part 1
TTITLE1=Chapter 01 Part 2
TTITLE2=Chapter 01 Part 3
TTITLE3=Chapter 01 Part 4
TTITLE4=Chapter 01 Part 5
TTITLE5=Chapter 02 Part 1
TTITLE6=Chapter 02 Part 2
TTITLE7=Chapter 02 Part 3
TTITLE8=Chapter 02 Part 4
TTITLE9=Chapter 03 Part 1
TTITLE10=Chapter 03 Part 2
TTITLE11=Chapter 03 Part 3
TTITLE12=Chapter 03 Part 4
TTITLE13=Chapter 03 Part 5
EXTD=
EXTT0=
EXTT1=
EXTT2=
EXTT3=
EXTT4=
EXTT5=
EXTT6=
EXTT7=
EXTT8=
EXTT9=
EXTT10=
EXTT11=
EXTT12=
EXTT13=
PLAYORDER=
